<svg width="79" height="79" viewBox="0 0 79 79" fill="none" xmlns="http://www.w3.org/2000/svg">
<path d="M72.8455 39.4998C72.8455 37.6307 73.3076 35.8804 74.1538 34.5687C75.0171 33.2229 75.2754 31.5678 74.8641 30.0249C74.4495 28.482 73.3994 27.1737 71.9789 26.4429C70.5922 25.7293 69.3145 24.4446 68.3799 22.827C67.4454 21.2094 66.973 19.4592 67.0478 17.9027C67.1225 16.3598 66.5516 14.8305 65.4845 13.709C64.4173 12.5875 62.9187 11.9453 61.3723 11.9453C61.2806 11.9453 61.1888 11.9487 61.1005 11.9521C60.9985 11.9589 60.8932 11.9589 60.7878 11.9589C59.3129 11.9589 57.6749 11.4831 56.1761 10.6198C54.5584 9.68529 53.2739 8.40743 52.5602 7.02091C51.5815 5.12118 49.6443 3.94189 47.5067 3.94189C46.4158 3.94189 45.3521 4.25455 44.4346 4.84591C43.1228 5.68872 41.3726 6.1543 39.5034 6.1543C37.6343 6.1543 35.884 5.68871 34.5723 4.84591C33.6547 4.25458 32.591 3.94189 31.5001 3.94189C29.3625 3.94189 27.4254 5.12118 26.4466 7.02091C25.733 8.40752 24.4483 9.68529 22.8307 10.6198C21.332 11.483 19.6973 11.9589 18.219 11.9589C18.1137 11.9589 18.0083 11.9555 17.9064 11.9521C16.2684 11.8739 14.6507 12.523 13.519 13.709C12.4518 14.8271 11.8809 16.3564 11.9557 17.9027C12.0304 19.4592 11.5581 21.206 10.6235 22.8271C9.68897 24.4447 8.41112 25.7293 7.0246 26.443C5.60406 27.1736 4.55049 28.4786 4.13933 30.0249C3.72472 31.5678 3.983 33.2263 4.84961 34.5687C5.69242 35.8805 6.158 37.6306 6.158 39.4998C6.158 41.369 5.69581 43.1192 4.84961 44.431C3.9864 45.7768 3.72809 47.4318 4.13933 48.9747C4.55394 50.5176 5.60406 51.826 7.0246 52.5567C8.41121 53.2704 9.68897 54.555 10.6235 56.1726C11.5581 57.7903 12.0305 59.5405 11.9557 61.0935C11.8809 62.6397 12.4518 64.1656 13.519 65.2871C14.5861 66.4087 16.0848 67.0509 17.6311 67.0509C17.7229 67.0509 17.8146 67.0475 17.903 67.0441C18.005 67.0373 18.1103 67.0373 18.2157 67.0373C19.6906 67.0373 21.3286 67.5131 22.8274 68.3763C24.445 69.3109 25.7296 70.5887 26.4432 71.9753C27.422 73.875 29.3591 75.0543 31.4967 75.0543C32.5876 75.0543 33.6514 74.7416 34.5689 74.1503C35.8807 73.3074 37.6308 72.8419 39.5 72.8419C41.3692 72.8419 43.1194 73.3074 44.4312 74.1503C45.3488 74.7416 46.4124 75.0543 47.5033 75.0543C49.6409 75.0543 51.5781 73.875 52.5568 71.9753C53.2705 70.5886 54.5551 69.3109 56.1727 68.3763C57.6715 67.5131 59.3061 67.0373 60.7844 67.0373C60.8898 67.0373 60.9951 67.0407 61.0971 67.0441C62.7351 67.1257 64.3528 66.4732 65.4845 65.2871C66.5516 64.169 67.1225 62.6397 67.0478 61.0935C66.973 59.537 67.4454 57.7902 68.3799 56.1691C69.3145 54.5514 70.5923 53.2669 71.9789 52.5532C73.3994 51.8225 74.453 50.5176 74.8641 48.9712C75.2787 47.4284 75.0205 45.7699 74.1539 44.4275C73.311 43.1191 72.8455 41.3689 72.8455 39.4997L72.8455 39.4998Z" fill="#F18200"/>
<path d="M76.2305 39.5002C76.2305 37.4985 76.7267 35.626 77.6239 34.2292C78.6061 32.7033 78.8983 30.8239 78.4294 29.0703C77.9604 27.3168 76.7641 25.835 75.1533 25.0024C73.675 24.2411 72.3122 22.8682 71.3096 21.135C70.307 19.4018 69.8007 17.5327 69.8823 15.8742C69.9673 14.1206 69.3216 12.384 68.1083 11.1129C66.8951 9.84195 65.1958 9.11124 63.4388 9.11124C63.3369 9.11124 63.2315 9.11464 63.1296 9.11803C63.0208 9.12483 62.9087 9.12483 62.7965 9.12483C61.223 9.12483 59.4695 8.61506 57.8654 7.68733C56.1321 6.68483 54.7592 5.32197 53.9979 3.84367C52.8867 1.68903 50.6879 0.350098 48.2579 0.350098C47.0175 0.350098 45.8145 0.703535 44.7712 1.37644C43.3744 2.27358 41.5019 2.76983 39.5002 2.76983C37.4985 2.76983 35.626 2.27366 34.2292 1.37644C33.1859 0.703544 31.9795 0.350098 30.7424 0.350098C28.3159 0.350098 26.1171 1.68911 25.0024 3.84706C24.2412 5.32537 22.8682 6.68814 21.135 7.69072C19.5309 8.61849 17.7807 9.12822 16.2038 9.12822C16.0917 9.12822 15.9795 9.12483 15.8708 9.12143C15.7688 9.11463 15.6635 9.11463 15.5615 9.11463C13.808 9.11463 12.1053 9.84529 10.8921 11.1163C9.67885 12.3873 9.03314 14.1239 9.11805 15.8776C9.19962 17.536 8.68985 19.4052 7.69073 21.1384C6.69162 22.8716 5.32538 24.2445 3.84707 25.0058C2.23279 25.835 1.03993 27.3167 0.570999 29.0737C0.102017 30.8273 0.394285 32.7067 1.37643 34.2326C2.27357 35.626 2.76982 37.4985 2.76982 39.5002C2.76982 41.5019 2.27365 43.3744 1.37643 44.7711C0.394285 46.297 0.102052 48.1764 0.570999 49.93C1.03998 51.6836 2.23627 53.1653 3.84707 53.9979C5.32538 54.7592 6.68814 56.1321 7.69073 57.8653C8.69332 59.5986 9.19966 61.4677 9.11805 63.1262C9.03309 64.8797 9.67879 66.6163 10.8921 67.8874C12.1053 69.1584 13.8046 69.8891 15.5615 69.8891C15.6635 69.8891 15.7688 69.8857 15.8708 69.8823C15.9795 69.8755 16.0917 69.8755 16.2038 69.8755C17.7773 69.8755 19.5309 70.3853 21.135 71.313C22.8682 72.3155 24.2412 73.6784 25.0024 75.1567C26.1137 77.3113 28.3125 78.6502 30.7424 78.6502C31.9829 78.6502 33.1859 78.2968 34.2292 77.6239C35.626 76.7268 37.4985 76.2305 39.5002 76.2305C41.5019 76.2305 43.3744 76.7267 44.7712 77.6239C45.8145 78.2968 47.0209 78.6502 48.2579 78.6502C50.6845 78.6502 52.8832 77.3112 53.9946 75.1533C54.7558 73.675 56.1287 72.3122 57.862 71.3096C59.4661 70.3818 61.2162 69.8721 62.7931 69.8721C62.9053 69.8721 63.0174 69.8755 63.1262 69.8789C63.2281 69.8857 63.3335 69.8857 63.4354 69.8857C65.189 69.8857 66.8917 69.155 68.1049 67.884C69.3181 66.613 69.9638 64.8764 69.8789 63.1228C69.7973 61.4644 70.3071 59.5952 71.3062 57.862C72.3087 56.1287 73.6716 54.7558 75.1499 53.9945C76.7642 53.1653 77.957 51.6836 78.426 49.9266C78.8949 48.173 78.6027 46.2936 77.6205 44.7678C76.7268 43.3744 76.2305 41.5019 76.2305 39.5002ZM75.2721 49.0841C74.827 50.7425 73.6987 52.146 72.1694 52.9311C70.8542 53.6074 69.641 54.8343 68.7438 56.384C67.85 57.9336 67.3946 59.5989 67.4659 61.0738C67.5475 62.7322 66.9323 64.3771 65.7871 65.5802C64.6384 66.7832 63.0275 67.4731 61.3691 67.4731C61.2706 67.4731 61.172 67.4697 61.0734 67.4663C60.9783 67.4629 60.8797 67.4595 60.7812 67.4595C59.3776 67.4595 57.8178 67.9149 56.3836 68.7442C54.8339 69.6379 53.6071 70.8546 52.9307 72.1698C51.8773 74.2123 49.7973 75.4799 47.5 75.4799C46.3275 75.4799 45.1856 75.1434 44.1967 74.5079C42.9529 73.7093 41.2842 73.2675 39.4967 73.2675C37.7091 73.2675 36.0371 73.7093 34.7967 74.5079C33.8112 75.1434 32.6693 75.4799 31.4968 75.4799C29.1995 75.4799 27.1197 74.2123 26.0661 72.1698C25.3898 70.8546 24.163 69.6379 22.6132 68.7442C21.1791 67.9149 19.6158 67.4595 18.2156 67.4595C18.1171 67.4595 18.0185 67.4629 17.9234 67.4663C17.8282 67.4697 17.7263 67.4731 17.6277 67.4731C15.9658 67.4731 14.355 66.7832 13.2098 65.5802C12.0645 64.3771 11.4494 62.7357 11.5309 61.0738C11.6023 59.5989 11.1469 57.9336 10.2531 56.384C9.35932 54.8344 8.14263 53.6075 6.82745 52.9311C5.30156 52.1461 4.16986 50.7426 3.72468 49.0841C3.27948 47.4257 3.55815 45.6449 4.48593 44.2005C5.28456 42.9567 5.72638 41.288 5.72638 39.5005C5.72638 37.713 5.28458 36.0409 4.48593 34.8005C3.55816 33.3561 3.2795 31.5754 3.72468 29.9169C4.16988 28.2585 5.29816 26.855 6.82745 26.0699C8.14263 25.3936 9.35584 24.1668 10.2531 22.617C11.1468 21.0674 11.6023 19.4021 11.5309 17.9272C11.4494 16.2688 12.0645 14.6239 13.2098 13.4209C14.3584 12.2178 15.9693 11.5279 17.6277 11.5279C17.7263 11.5279 17.8248 11.5313 17.9234 11.5347C18.0185 11.5381 18.1171 11.5415 18.2156 11.5415C19.6192 11.5415 21.179 11.0861 22.6132 10.2569C24.1629 9.36312 25.3898 8.14643 26.0661 6.83125C27.1196 4.78875 29.1995 3.52116 31.4968 3.52116C32.6693 3.52116 33.8112 3.85761 34.7967 4.49312C36.0406 5.29176 37.7092 5.73357 39.4967 5.73357C41.2843 5.73357 42.9564 5.29178 44.1967 4.49312C45.1823 3.85761 46.3241 3.52116 47.4966 3.52116C49.794 3.52116 51.8738 4.78875 52.9273 6.83125C53.6036 8.14643 54.8305 9.36312 56.3802 10.2569C57.8143 11.0861 59.3776 11.5415 60.7778 11.5415C60.8763 11.5415 60.9749 11.5381 61.0701 11.5347C61.1652 11.5313 61.2672 11.5279 61.3657 11.5279C63.0276 11.5279 64.6384 12.2178 65.7837 13.4209C66.9289 14.6239 67.544 16.2653 67.4625 17.9272C67.3911 19.4021 67.8465 21.0674 68.7404 22.617C69.6342 24.1667 70.8508 25.3935 72.166 26.0699C73.6919 26.8549 74.8236 28.2585 75.2688 29.9169C75.7139 31.5754 75.4353 33.3561 74.5075 34.8005C73.7089 36.0443 73.2671 37.713 73.2671 39.5005C73.2671 41.288 73.7089 42.9602 74.5075 44.2005C75.4387 45.6449 75.7173 47.4256 75.2722 49.0841H75.2721Z" fill="#F18200"/>
<path d="M42.5703 25.7514C42.5703 26.6832 42.5207 27.5852 42.4216 28.4574C42.3225 29.3099 42.1936 30.2713 42.035 31.3418L39.9535 46.4479H37.069L35.1362 32.5016C35.0371 31.8077 34.9479 31.1634 34.8686 30.5687C34.7893 29.974 34.71 29.409 34.6307 28.8737C34.5514 28.3385 34.4919 27.8131 34.4522 27.2977C34.4126 26.7823 34.3928 26.247 34.3928 25.6919C34.3928 23.3329 34.7496 21.6082 35.4633 20.5178C36.1968 19.4275 37.2276 18.8823 38.5559 18.8823C39.2101 18.8823 39.785 19.0013 40.2806 19.2392C40.7762 19.4572 41.1925 19.8339 41.5295 20.3691C41.8863 20.9044 42.144 21.6181 42.3026 22.5102C42.4811 23.3824 42.5703 24.4628 42.5703 25.7514ZM43.2245 53.9415C43.2245 54.5957 43.1055 55.2102 42.8676 55.7851C42.6297 56.36 42.3026 56.8556 41.8863 57.2719C41.47 57.6882 40.9744 58.0252 40.3995 58.283C39.8444 58.5208 39.2497 58.6398 38.6153 58.6398C37.9611 58.6398 37.3466 58.5208 36.7717 58.283C36.1968 58.0252 35.7012 57.6882 35.2849 57.2719C34.8686 56.8556 34.5315 56.36 34.2738 55.7851C34.0359 55.2102 33.917 54.5957 33.917 53.9415C33.917 53.3071 34.0359 52.7124 34.2738 52.1573C34.5315 51.5824 34.8686 51.0868 35.2849 50.6705C35.7012 50.2541 36.1968 49.927 36.7717 49.6892C37.3466 49.4513 37.9611 49.3323 38.6153 49.3323C39.2497 49.3323 39.8444 49.4513 40.3995 49.6892C40.9744 49.927 41.47 50.2541 41.8863 50.6705C42.3026 51.0868 42.6297 51.5824 42.8676 52.1573C43.1055 52.7124 43.2245 53.3071 43.2245 53.9415Z" fill="white"/>
</svg>
