<svg width="1440" height="900" viewBox="0 0 1440 900" fill="none" xmlns="http://www.w3.org/2000/svg">
<g clip-path="url(#clip0)">
<g filter="url(#filter0_d)">
<rect x="-402" y="652" width="4010" height="248" fill="#0CA074"/>
</g>
<rect width="1440" height="900" fill="#A9C5BB"/>
<rect width="1440" height="900" fill="url(#paint0_linear)"/>
<path fill-rule="evenodd" clip-rule="evenodd" d="M3607.49 900V873.405C3509.53 765.688 3443.82 721.577 3189.96 849.069C3156.22 870.983 3127.07 888.703 3100.05 900H3607.49ZM2984.66 900C2963.78 889.637 2941.92 873.039 2917.83 849.069C2855.52 663.668 2730.62 646.411 2265.52 849.069C2217.33 872.339 2175.7 889.271 2137.99 900H2984.66ZM1961.76 900C1929.05 889.19 1895.62 872.165 1858.66 849.069C1623.56 630.549 1303.22 651.477 458.065 900H1961.76ZM447.292 900H-398.374C-17.6956 676.588 172.783 658.53 447.292 900Z" fill="#1F8365"/>
<path d="M866 820.266C870.647 816.682 874.922 812.337 881.348 803.515C877.996 803.184 874.443 802.633 870.345 801.905C874.422 798.629 878.664 793.689 884.894 784.474C882.099 784.082 879.156 783.415 875.776 782.506C880.954 778.49 886.446 771.405 897.5 754C908.554 771.405 914.046 778.489 919.224 782.505C915.844 783.414 912.901 784.081 910.106 784.473C916.336 793.688 920.577 798.628 924.655 801.904C920.557 802.632 917.004 803.183 913.652 803.514C920.078 812.337 924.353 816.681 929 820.265C922.723 822.575 915.275 823.416 902.931 823.685V838H892.069V823.686C879.725 823.417 872.277 822.576 866 820.266Z" fill="#033724"/>
<path fill-rule="evenodd" clip-rule="evenodd" d="M-403.752 834.586V900H23.0776C-4.26782 889.661 -34.9006 868.939 -71.5937 834.586C-201.307 730.308 -274.033 733.598 -403.752 834.586ZM107.079 900H3608.83V868.709C3368.65 774.269 3066.03 689.371 2839.13 834.586C2746.13 874.411 2692.42 894.356 2533.65 834.586C2148.23 701.948 1932.04 639.134 1293.06 846.006C1288.32 847.21 1283.69 848.397 1279.14 849.561C1178.68 875.289 1121.49 889.937 971.57 834.586C935.322 823.762 900.523 813.021 867.04 802.687C577.609 713.353 386.548 654.382 208.54 834.586C206.41 836.192 204.301 837.785 202.212 839.363C166.881 866.045 137.11 888.528 107.079 900Z" fill="#468F79"/>
<rect x="-14" y="-13" width="1468" height="102" fill="#A9C5BB"/>
<path d="M501 857.943C510.663 850.049 519.552 840.481 532.913 821.051C525.943 820.321 518.556 819.109 510.034 817.506C518.513 810.291 527.333 799.411 540.288 779.115C534.476 778.251 528.356 776.782 521.327 774.78C532.095 765.937 543.514 750.333 566.5 712C589.485 750.331 600.905 765.935 611.672 774.778C604.643 776.78 598.524 778.249 592.712 779.113C605.667 799.409 614.487 810.288 622.966 817.503C614.444 819.107 607.056 820.319 600.086 821.049C613.447 840.479 622.337 850.047 632 857.941C618.949 863.029 603.461 864.881 577.793 865.473V897H555.207V865.475C529.539 864.883 514.051 863.031 501 857.943Z" fill="#75A599"/>
<path d="M1093 805.488C1101.33 798.916 1109 790.952 1120.53 774.778C1114.52 774.17 1108.14 773.161 1100.79 771.826C1108.11 765.82 1115.71 756.764 1126.89 739.869C1121.88 739.15 1116.6 737.927 1110.53 736.26C1119.82 728.899 1129.67 715.91 1149.5 684C1169.33 715.908 1179.18 728.897 1188.47 736.258C1182.4 737.925 1177.12 739.148 1172.11 739.867C1183.28 756.762 1190.89 765.819 1198.21 771.824C1190.86 773.159 1184.48 774.168 1178.47 774.776C1190 790.95 1197.66 798.915 1206 805.486C1194.74 809.721 1181.38 811.263 1159.24 811.756V838H1139.76V811.757C1117.62 811.265 1104.26 809.723 1093 805.488Z" fill="#004F54"/>
<path d="M1257 906.954C1266 899.871 1274.28 891.286 1286.72 873.851C1280.23 873.196 1273.35 872.109 1265.41 870.67C1273.31 864.196 1281.52 854.434 1293.59 836.222C1288.18 835.447 1282.48 834.129 1275.93 832.332C1285.96 824.398 1296.59 810.396 1318 776C1339.41 810.395 1350.04 824.396 1360.07 832.33C1353.52 834.127 1347.82 835.445 1342.41 836.22C1354.48 854.432 1362.69 864.194 1370.59 870.668C1362.65 872.107 1355.77 873.194 1349.28 873.849C1361.72 891.284 1370 899.869 1379 906.952C1366.85 911.518 1352.42 913.179 1328.52 913.711V942H1307.48V913.713C1283.58 913.181 1269.15 911.519 1257 906.954Z" fill="#75A599"/>
<path d="M1334 726.044C1339.68 721.606 1344.9 716.227 1352.76 705.304C1348.66 704.894 1344.32 704.213 1339.31 703.311C1344.29 699.255 1349.48 693.139 1357.09 681.73C1353.68 681.244 1350.08 680.418 1345.95 679.293C1352.28 674.321 1358.99 665.549 1372.5 644C1386.01 665.548 1392.72 674.32 1399.05 679.291C1394.92 680.417 1391.32 681.243 1387.91 681.728C1395.52 693.138 1400.71 699.254 1405.69 703.31C1400.68 704.211 1396.34 704.893 1392.24 705.303C1400.09 716.226 1405.32 721.605 1411 726.042C1403.33 728.903 1394.23 729.944 1379.14 730.276V748H1365.86V730.278C1350.77 729.945 1341.67 728.904 1334 726.044Z" fill="#033724"/>
<path d="M325 807.199C330.975 802.591 336.471 797.005 344.733 785.662C340.423 785.236 335.855 784.528 330.586 783.592C335.829 779.381 341.282 773.029 349.292 761.181C345.699 760.676 341.915 759.819 337.569 758.65C344.227 753.488 351.287 744.378 365.5 722C379.712 744.377 386.773 753.486 393.431 758.649C389.085 759.818 385.301 760.675 381.707 761.18C389.718 773.028 395.171 779.379 400.414 783.591C395.145 784.527 390.577 785.235 386.267 785.661C394.528 797.004 400.025 802.589 406 807.198C397.93 810.168 388.354 811.249 372.483 811.595V830H358.517V811.596C342.646 811.251 333.07 810.169 325 807.199Z" fill="#004F54"/>
<path d="M191 757.955C194.983 754.712 198.648 750.781 204.155 742.799C201.282 742.499 198.237 742.002 194.724 741.343C198.219 738.379 201.855 733.909 207.195 725.572C204.799 725.217 202.277 724.613 199.379 723.791C203.818 720.158 208.525 713.748 218 698C227.475 713.747 232.182 720.157 236.621 723.79C233.723 724.612 231.201 725.216 228.805 725.571C234.145 733.908 237.781 738.378 241.276 741.342C237.763 742.001 234.718 742.499 231.845 742.798C237.352 750.781 241.017 754.711 245 757.954C239.62 760.044 233.236 760.805 222.655 761.048V774H213.345V761.049C202.764 760.806 196.38 760.045 191 757.955Z" fill="#033724"/>
<path d="M728.586 856.997C722.537 858.106 717.292 858.945 712.344 859.45C721.829 872.894 728.14 879.514 735 884.976C725.735 888.496 714.74 889.778 696.518 890.188V912H688.501H680.483V890.189C662.26 889.779 651.266 888.498 642 884.977C648.86 879.515 655.171 872.895 664.657 859.451C659.708 858.946 654.464 858.107 648.414 856.998C654.434 852.006 660.695 844.478 669.892 830.436C665.766 829.838 661.421 828.822 656.431 827.437C664.076 821.318 672.182 810.522 688.5 784C704.818 810.523 712.925 821.317 720.569 827.436C715.579 828.821 711.235 829.837 707.109 830.435C716.306 844.477 722.567 852.005 728.586 856.997Z" fill="#004F54"/>
<path d="M104.897 777.84C98.1964 779.054 92.3882 779.971 86.9078 780.523C97.413 795.228 104.403 802.468 112 808.442C101.738 812.292 89.5615 813.695 69.38 814.143V838H60.5007H51.6213V814.144C31.439 813.696 19.2618 812.294 9 808.444C16.5976 802.47 23.5874 795.229 34.0929 780.524C28.6125 779.972 22.8044 779.055 16.1039 777.841C22.7705 772.382 29.7051 764.148 39.8908 748.79C35.3211 748.136 30.5097 747.024 24.9833 745.509C33.4494 738.817 42.4276 727.008 60.5 698C78.5728 727.009 87.5513 738.816 96.0175 745.508C90.491 747.023 85.6796 748.134 81.11 748.788C91.2957 764.147 98.2302 772.38 104.897 777.84Z" fill="#18696E"/>
<path fill-rule="evenodd" clip-rule="evenodd" d="M1031.09 305.806C996.19 305.471 968 277.074 968 242.094C968 206.905 996.526 178.379 1031.71 178.379C1033.75 178.379 1035.76 178.474 1037.74 178.66C1047.62 132.007 1089.05 97 1138.64 97C1181.62 97 1218.46 123.286 1233.96 160.658C1236.41 160.28 1238.91 160.084 1241.47 160.084C1262.93 160.084 1281.16 173.91 1287.74 193.14C1295.79 188.949 1304.94 186.58 1314.65 186.58C1346.87 186.58 1373 212.705 1373 244.932C1373 277.16 1346.87 303.285 1314.65 303.285C1302.42 303.285 1291.06 299.521 1281.68 293.089C1269.01 317.156 1243.75 333.566 1214.66 333.566C1194.53 333.566 1176.23 325.707 1162.67 312.89C1148.31 332.321 1125.23 344.921 1099.21 344.921C1070.16 344.921 1044.77 329.203 1031.09 305.806Z" fill="white" fill-opacity="0.45"/>
<path fill-rule="evenodd" clip-rule="evenodd" d="M1545.68 535.83C1566.88 535.627 1584 518.379 1584 497.131C1584 475.757 1566.67 458.43 1545.3 458.43C1544.06 458.43 1542.84 458.488 1541.64 458.601C1535.64 430.264 1510.48 409 1480.35 409C1454.25 409 1431.87 424.966 1422.46 447.666C1420.97 447.437 1419.44 447.318 1417.89 447.318C1404.86 447.318 1393.78 455.716 1389.79 467.396C1384.9 464.85 1379.34 463.411 1373.44 463.411C1353.87 463.411 1338 479.28 1338 498.855C1338 518.43 1353.87 534.299 1373.44 534.299C1380.87 534.299 1387.77 532.013 1393.47 528.106C1401.17 542.725 1416.51 552.692 1434.18 552.692C1446.41 552.692 1457.52 547.918 1465.76 540.133C1474.48 551.935 1488.5 559.589 1504.3 559.589C1521.95 559.589 1537.37 550.042 1545.68 535.83Z" fill="white" fill-opacity="0.3"/>
<path fill-rule="evenodd" clip-rule="evenodd" d="M450.449 587.082C443.72 587.082 437.3 585.763 431.432 583.369C418.286 610.46 390.515 629.137 358.382 629.137C339.008 629.137 321.22 622.347 307.267 611.018C297.138 622.649 282.221 630 265.586 630C245.895 630 228.61 619.699 218.826 604.191C211.392 610.081 201.993 613.598 191.773 613.598C168.007 613.598 148.683 594.58 148.187 570.933C147.875 570.967 147.561 570.998 147.247 571.026C123.336 573.116 102.258 555.426 100.168 531.516C98.0776 507.605 115.767 486.527 139.678 484.437C143.067 484.14 146.4 484.242 149.629 484.702C155.424 459.631 177.891 440.941 204.723 440.941C212.519 440.941 219.948 442.519 226.705 445.373C242.912 423.316 269.037 409 298.507 409C331.201 409 359.779 426.62 375.263 452.882C382.096 448.122 390.403 445.331 399.362 445.331C422.53 445.331 441.338 463.998 441.566 487.113C444.449 486.6 447.418 486.332 450.449 486.332C478.27 486.332 500.823 508.886 500.823 536.707C500.823 564.529 478.27 587.082 450.449 587.082Z" fill="white" fill-opacity="0.5"/>
<path fill-rule="evenodd" clip-rule="evenodd" d="M131.903 262.172C127.854 262.172 123.99 261.378 120.458 259.938C112.547 276.24 95.8345 287.48 76.4967 287.48C64.8373 287.48 54.1323 283.394 45.7352 276.576C39.6395 283.576 30.6621 287.999 20.6515 287.999C8.80144 287.999 -1.60077 281.8 -7.48912 272.468C-11.9626 276.013 -17.6191 278.129 -23.7699 278.129C-38.0725 278.129 -49.7021 266.685 -50.0004 252.454C-50.1884 252.474 -50.3772 252.493 -50.5666 252.509C-64.9564 253.767 -77.6413 243.121 -78.8991 228.732C-80.1569 214.342 -69.5113 201.657 -55.1215 200.399C-53.0817 200.221 -51.0762 200.282 -49.1326 200.559C-45.6455 185.47 -32.1246 174.223 -15.9767 174.223C-11.2846 174.223 -6.81437 175.173 -2.74762 176.89C7.00562 163.616 22.7284 155 40.4635 155C60.1387 155 77.3372 165.604 86.6559 181.409C90.768 178.544 95.7672 176.864 101.159 176.864C115.102 176.864 126.421 188.099 126.557 202.01C128.293 201.701 130.079 201.54 131.903 201.54C148.647 201.54 162.22 215.113 162.22 231.856C162.22 248.599 148.647 262.172 131.903 262.172Z" fill="white" fill-opacity="0.3"/>
</g>
<defs>
<filter id="filter0_d" x="-427" y="631" width="4060" height="298" filterUnits="userSpaceOnUse" color-interpolation-filters="sRGB">
<feFlood flood-opacity="0" result="BackgroundImageFix"/>
<feColorMatrix in="SourceAlpha" type="matrix" values="0 0 0 0 0 0 0 0 0 0 0 0 0 0 0 0 0 0 127 0"/>
<feOffset dy="4"/>
<feGaussianBlur stdDeviation="12.5"/>
<feColorMatrix type="matrix" values="0 0 0 0 0 0 0 0 0 0 0 0 0 0 0 0 0 0 0.15 0"/>
<feBlend mode="normal" in2="BackgroundImageFix" result="effect1_dropShadow"/>
<feBlend mode="normal" in="SourceGraphic" in2="effect1_dropShadow" result="shape"/>
</filter>
<linearGradient id="paint0_linear" x1="577.5" y1="1028.5" x2="587" y2="104" gradientUnits="userSpaceOnUse">
<stop stop-color="white" stop-opacity="0.62"/>
<stop offset="1" stop-color="white" stop-opacity="0"/>
</linearGradient>
<clipPath id="clip0">
<rect width="1440" height="900" fill="white"/>
</clipPath>
</defs>
</svg>
