<svg width="38" height="38" viewBox="0 0 38 38" fill="none" xmlns="http://www.w3.org/2000/svg">
<path d="M26.9674 0.939941C27.4317 0.939941 27.8074 1.31564 27.8074 1.77994V6.93796C29.2495 7.31531 30.3274 8.62451 30.3274 10.1799C30.3274 12.0255 28.8131 13.5399 26.9674 13.5399C25.1217 13.5399 23.6074 12.0255 23.6074 10.1799C23.6074 8.62456 24.6853 7.31533 26.1274 6.93796V1.77994C26.1274 1.31563 26.5031 0.939941 26.9674 0.939941ZM11.0074 0.939941C11.4717 0.939941 11.8474 1.31564 11.8474 1.77994V6.93796C13.2895 7.31531 14.3674 8.62451 14.3674 10.1799C14.3674 12.0255 12.8531 13.5399 11.0074 13.5399C9.16172 13.5399 7.64741 12.0255 7.64741 10.1799C7.64741 8.62456 8.7253 7.31533 10.1674 6.93796V1.77994C10.1674 1.31563 10.5431 0.939941 11.0074 0.939941ZM32.8474 3.45994C35.1656 3.45994 37.0604 5.35486 37.0604 7.67296V32.8469C37.0604 35.1651 35.1655 37.0599 32.8474 37.0599H5.15345C2.83526 37.0599 0.94043 35.165 0.94043 32.8469V7.67296C0.94043 5.35477 2.83534 3.45994 5.15345 3.45994H7.66035C8.10332 3.45338 8.51345 3.85533 8.51345 4.29994C8.51345 4.74455 8.1033 5.14649 7.66035 5.13994H5.15345C3.73759 5.13994 2.62035 6.25723 2.62035 7.67305V15.22H35.3804V7.67305C35.3804 6.25718 34.2631 5.13994 32.8472 5.13994H30.3403C29.8974 5.1465 29.4872 4.74455 29.4872 4.29994C29.4872 3.85533 29.8974 3.45339 30.3403 3.45994H32.8474ZM23.6204 3.45994C24.0847 3.45994 24.4604 3.83564 24.4604 4.29994C24.4604 4.76424 24.0847 5.13994 23.6204 5.13994H14.3804C13.9161 5.13994 13.5404 4.76424 13.5404 4.29994C13.5404 3.83564 13.9161 3.45994 14.3804 3.45994H23.6204ZM26.9673 8.49994C26.0289 8.49994 25.2873 9.24149 25.2873 10.1799C25.2873 11.1184 26.0289 11.8599 26.9673 11.8599C27.9058 11.8599 28.6473 11.1184 28.6473 10.1799C28.6473 9.24149 27.9058 8.49994 26.9673 8.49994ZM11.0073 8.49994C10.0689 8.49994 9.32733 9.24149 9.32733 10.1799C9.32733 11.1184 10.0689 11.8599 11.0073 11.8599C11.9458 11.8599 12.6873 11.1184 12.6873 10.1799C12.6873 9.24149 11.9458 8.49994 11.0073 8.49994ZM35.3804 16.8999H2.62035V32.8469C2.62035 34.2628 3.73763 35.38 5.15345 35.38H32.8474C34.2633 35.38 35.3805 34.2627 35.3805 32.8469L35.3804 16.8999Z" fill="#979797"/>
</svg>
