<svg width="163" height="163" viewBox="0 0 163 163" fill="none" xmlns="http://www.w3.org/2000/svg">
<path d="M143.977 81.5004C143.977 77.9985 144.842 74.7193 146.428 72.2615C148.045 69.7401 148.529 66.6393 147.759 63.7485C146.982 60.8579 145.014 58.4065 142.353 57.0375C139.755 55.7004 137.361 53.2936 135.61 50.2629C133.859 47.2321 132.974 43.953 133.114 41.0368C133.254 38.1461 132.185 35.2809 130.185 33.1797C128.186 31.0785 125.378 29.8752 122.481 29.8752C122.309 29.8752 122.137 29.8816 121.972 29.8879C121.781 29.9007 121.583 29.9007 121.386 29.9007C118.622 29.9007 115.553 29.0092 112.745 27.3919C109.715 25.641 107.308 23.2468 105.971 20.6491C104.137 17.0898 100.508 14.8804 96.5028 14.8804C94.459 14.8804 92.466 15.4662 90.7469 16.5741C88.2892 18.1532 85.0102 19.0255 81.5081 19.0255C78.0062 19.0255 74.727 18.1531 72.2693 16.5741C70.5501 15.4662 68.5573 14.8804 66.5134 14.8804C62.5085 14.8804 58.8791 17.0898 57.0454 20.6491C55.7083 23.247 53.3014 25.641 50.2708 27.3919C47.4628 29.0092 44.4002 29.9007 41.6305 29.9007C41.4331 29.9007 41.2357 29.8943 41.0447 29.8879C37.9757 29.7415 34.9449 30.9576 32.8246 33.1797C30.8253 35.2746 29.7557 38.1398 29.8957 41.0368C30.0357 43.953 29.1507 47.2257 27.3998 50.2629C25.6489 53.2937 23.2547 55.7004 20.657 57.0375C17.9955 58.4065 16.0216 60.8514 15.2513 63.7486C14.4745 66.6392 14.9584 69.7465 16.582 72.2616C18.1611 74.7193 19.0334 77.9983 19.0334 81.5004C19.0334 85.0025 18.1674 88.2815 16.582 90.7393C14.9647 93.2607 14.4808 96.3614 15.2513 99.2522C16.0281 102.143 17.9955 104.594 20.657 105.963C23.2549 107.3 25.6489 109.707 27.3998 112.738C29.1508 115.769 30.0359 119.048 29.8957 121.957C29.7556 124.854 30.8253 127.713 32.8246 129.815C34.824 131.916 37.6318 133.119 40.529 133.119C40.7009 133.119 40.8728 133.113 41.0384 133.106C41.2294 133.094 41.4268 133.094 41.6241 133.094C44.3875 133.094 47.4564 133.985 50.2644 135.602C53.2953 137.353 55.702 139.747 57.0391 142.345C58.8728 145.904 62.5022 148.114 66.5071 148.114C68.5509 148.114 70.5439 147.528 72.2629 146.42C74.7206 144.841 77.9997 143.969 81.5018 143.969C85.0038 143.969 88.2829 144.841 90.7406 146.42C92.4598 147.528 94.4526 148.114 96.4965 148.114C100.501 148.114 104.131 145.904 105.964 142.345C107.302 139.747 109.708 137.353 112.739 135.602C115.547 133.985 118.61 133.094 121.379 133.094C121.577 133.094 121.774 133.1 121.965 133.106C125.034 133.259 128.065 132.037 130.185 129.815C132.185 127.72 133.254 124.854 133.114 121.957C132.974 119.041 133.859 115.769 135.61 112.731C137.361 109.701 139.755 107.294 142.353 105.957C145.014 104.588 146.988 102.143 147.759 99.2457C148.535 96.3551 148.052 93.2478 146.428 90.7327C144.849 88.2813 143.977 85.0023 143.977 81.5002L143.977 81.5004Z" fill="#0CA074"/>
<path d="M150.318 81.5C150.318 77.7497 151.248 74.2415 152.929 71.6245C154.769 68.7656 155.316 65.2445 154.438 61.9591C153.559 58.6737 151.318 55.8974 148.3 54.3375C145.53 52.9113 142.977 50.339 141.099 47.0917C139.22 43.8444 138.271 40.3425 138.424 37.2353C138.584 33.9498 137.374 30.6962 135.101 28.3148C132.828 25.9335 129.644 24.5644 126.352 24.5644C126.161 24.5644 125.964 24.5708 125.773 24.5772C125.569 24.5899 125.359 24.5899 125.149 24.5899C122.201 24.5899 118.915 23.6348 115.91 21.8967C112.663 20.0184 110.09 17.465 108.664 14.6953C106.582 10.6585 102.462 8.1499 97.9098 8.1499C95.5857 8.1499 93.3318 8.81209 91.3771 10.0728C88.7601 11.7537 85.2518 12.6834 81.5015 12.6834C77.7512 12.6834 74.243 11.7538 71.626 10.0728C69.6713 8.81211 67.411 8.1499 65.0933 8.1499C60.5471 8.1499 56.4276 10.6586 54.3391 14.7017C52.9128 17.4714 50.3405 20.0246 47.0932 21.903C44.0878 23.6413 40.8088 24.5963 37.8544 24.5963C37.6443 24.5963 37.4341 24.5899 37.2304 24.5835C37.0394 24.5708 36.842 24.5708 36.651 24.5708C33.3656 24.5708 30.1755 25.9397 27.9024 28.3211C25.6294 30.7024 24.4196 33.956 24.5787 37.2416C24.7315 40.3487 23.7764 43.8508 21.9045 47.0981C20.0326 50.3453 17.4729 52.9176 14.7032 54.3439C11.6787 55.8975 9.44383 58.6735 8.56526 61.9654C7.68659 65.2509 8.23417 68.772 10.0743 71.6309C11.7551 74.2415 12.6849 77.7497 12.6849 81.5C12.6849 85.2503 11.7553 88.7586 10.0743 91.3755C8.23417 94.2344 7.68666 97.7555 8.56526 101.041C9.44393 104.326 11.6852 107.103 14.7032 108.662C17.4729 110.089 20.0261 112.661 21.9045 115.908C23.7829 119.156 24.7316 122.658 24.5787 125.765C24.4195 129.05 25.6293 132.304 27.9024 134.685C30.1755 137.067 33.3592 138.436 36.651 138.436C36.842 138.436 37.0394 138.429 37.2304 138.423C37.4341 138.41 37.6443 138.41 37.8544 138.41C40.8024 138.41 44.0878 139.365 47.0932 141.103C50.3405 142.982 52.9128 145.535 54.3391 148.305C56.4211 152.342 60.5407 154.85 65.0933 154.85C67.4174 154.85 69.6713 154.188 71.626 152.927C74.243 151.246 77.7512 150.317 81.5015 150.317C85.2518 150.317 88.7601 151.246 91.3771 152.927C93.3318 154.188 95.5921 154.85 97.9098 154.85C102.456 154.85 106.576 152.341 108.658 148.298C110.084 145.529 112.656 142.975 115.904 141.097C118.909 139.359 122.188 138.404 125.142 138.404C125.352 138.404 125.563 138.41 125.766 138.417C125.957 138.429 126.155 138.429 126.346 138.429C129.631 138.429 132.821 137.06 135.094 134.679C137.367 132.298 138.577 129.044 138.418 125.758C138.265 122.651 139.22 119.149 141.092 115.902C142.97 112.655 145.524 110.082 148.294 108.656C151.318 107.103 153.553 104.327 154.431 101.035C155.31 97.7492 154.763 94.228 152.922 91.3692C151.248 88.7586 150.318 85.2503 150.318 81.5ZM148.523 99.4561C147.688 102.563 145.575 105.193 142.709 106.664C140.245 107.931 137.972 110.229 136.291 113.133C134.617 116.036 133.763 119.156 133.897 121.92C134.05 125.027 132.897 128.109 130.752 130.363C128.6 132.616 125.581 133.909 122.474 133.909C122.29 133.909 122.105 133.903 121.92 133.896C121.742 133.89 121.557 133.884 121.373 133.884C118.743 133.884 115.821 134.737 113.134 136.29C110.23 137.965 107.932 140.245 106.665 142.709C104.691 146.535 100.794 148.91 96.4898 148.91C94.293 148.91 92.1536 148.28 90.3008 147.089C87.9704 145.593 84.8441 144.765 81.4951 144.765C78.1459 144.765 75.0132 145.593 72.6893 147.089C70.8428 148.28 68.7035 148.91 66.5067 148.91C62.2025 148.91 58.3059 146.535 56.3319 142.709C55.0649 140.245 52.7663 137.965 49.8628 136.29C47.1759 134.737 44.2469 133.884 41.6236 133.884C41.439 133.884 41.2543 133.89 41.076 133.896C40.8977 133.903 40.7067 133.909 40.5221 133.909C37.4085 133.909 34.3905 132.617 32.2448 130.363C30.0991 128.109 28.9467 125.033 29.0994 121.92C29.2331 119.156 28.3799 116.036 26.7052 113.133C25.0307 110.23 22.7512 107.931 20.2871 106.664C17.4283 105.193 15.3079 102.563 14.4739 99.4561C13.6398 96.349 14.1619 93.0125 15.9001 90.3064C17.3964 87.976 18.2242 84.8497 18.2242 81.5007C18.2242 78.1517 17.3965 75.0188 15.9001 72.6949C14.1619 69.9888 13.6398 66.6525 14.4739 63.5452C15.308 60.4381 17.4219 57.8085 20.2871 56.3375C22.7512 55.0705 25.0242 52.7719 26.7052 49.8684C28.3797 46.965 29.233 43.8451 29.0994 41.0817C28.9466 37.9746 30.099 34.8928 32.2448 32.6388C34.3969 30.3849 37.415 29.0923 40.5221 29.0923C40.7067 29.0923 40.8914 29.0986 41.076 29.105C41.2543 29.1114 41.439 29.1177 41.6236 29.1177C44.2533 29.1177 47.1757 28.2645 49.8628 26.7109C52.7661 25.0364 55.0648 22.7568 56.3319 20.2927C58.3057 16.466 62.2025 14.0911 66.5067 14.0911C68.7035 14.0911 70.8428 14.7214 72.6893 15.9121C75.0197 17.4084 78.1461 18.2362 81.4951 18.2362C84.8442 18.2362 87.9769 17.4084 90.3008 15.9121C92.1473 14.7215 94.2866 14.0911 96.4834 14.0911C100.788 14.0911 104.684 16.466 106.658 20.2927C107.925 22.7568 110.224 25.0364 113.127 26.7109C115.814 28.2645 118.743 29.1177 121.366 29.1177C121.551 29.1177 121.736 29.1114 121.914 29.105C122.092 29.0986 122.283 29.0923 122.468 29.0923C125.582 29.0923 128.6 30.3848 130.745 32.6388C132.891 34.8928 134.043 37.9681 133.891 41.0817C133.757 43.8451 134.61 46.965 136.285 49.8684C137.96 52.7718 140.239 55.0704 142.703 56.3375C145.562 57.8084 147.682 60.438 148.516 63.5452C149.35 66.6525 148.828 69.9888 147.09 72.6949C145.594 75.0253 144.766 78.1517 144.766 81.5007C144.766 84.8497 145.594 87.9825 147.09 90.3064C148.835 93.0125 149.357 96.3488 148.523 99.4561Z" fill="#0CA074"/>
<path fill-rule="evenodd" clip-rule="evenodd" d="M56.1773 68.7717L69.5 83L90.5 58.5L107.086 76.3956L95.9801 87.7884C95.5876 88.191 94.9405 88.191 94.548 87.7884L87.3865 80.4421C86.9941 80.0395 86.3469 80.0395 85.9544 80.4421L76.6091 90.0287C76.2305 90.417 76.2305 91.0364 76.6091 91.4248L83.1034 98.0867H41L56.1773 68.7717Z" fill="white"/>
<path d="M114.96 77L96.492 95.7413L87.04 86.2013L82 91.3125L96.492 106L120 82.1112L114.96 77Z" fill="white"/>
</svg>
