<svg width="163" height="163" viewBox="0 0 163 163" fill="none" xmlns="http://www.w3.org/2000/svg">
<path d="M143.977 81.5009C143.977 77.999 144.842 74.7197 146.428 72.262C148.045 69.7406 148.529 66.6398 147.759 63.749C146.982 60.8584 145.014 58.407 142.353 57.038C139.755 55.7009 137.361 53.294 135.61 50.2634C133.859 47.2326 132.974 43.9535 133.114 41.0373C133.254 38.1466 132.185 35.2814 130.185 33.1802C128.186 31.0789 125.378 29.8757 122.481 29.8757C122.309 29.8757 122.137 29.882 121.972 29.8884C121.781 29.9011 121.583 29.9011 121.386 29.9011C118.622 29.9011 115.553 29.0097 112.745 27.3924C109.715 25.6415 107.308 23.2473 105.971 20.6496C104.137 17.0903 100.508 14.8809 96.5028 14.8809C94.459 14.8809 92.466 15.4666 90.7469 16.5746C88.2892 18.1537 85.0102 19.0259 81.5081 19.0259C78.0062 19.0259 74.727 18.1536 72.2693 16.5746C70.5501 15.4667 68.5573 14.8809 66.5134 14.8809C62.5085 14.8809 58.8791 17.0903 57.0454 20.6496C55.7083 23.2475 53.3014 25.6415 50.2708 27.3924C47.4628 29.0097 44.4002 29.9011 41.6305 29.9011C41.4331 29.9011 41.2357 29.8948 41.0447 29.8884C37.9757 29.742 34.9449 30.9581 32.8246 33.1802C30.8253 35.2751 29.7557 38.1403 29.8957 41.0373C30.0357 43.9535 29.1507 47.2262 27.3998 50.2634C25.6489 53.2942 23.2547 55.7009 20.657 57.038C17.9955 58.407 16.0216 60.8519 15.2513 63.7491C14.4745 66.6397 14.9584 69.747 16.582 72.2621C18.1611 74.7198 19.0334 77.9988 19.0334 81.5009C19.0334 85.0029 18.1674 88.282 16.582 90.7397C14.9647 93.2612 14.4808 96.3619 15.2513 99.2527C16.0281 102.143 17.9955 104.595 20.657 105.964C23.2549 107.301 25.6489 109.708 27.3998 112.738C29.1508 115.769 30.0359 119.048 29.8957 121.958C29.7556 124.855 30.8253 127.714 32.8246 129.815C34.824 131.916 37.6318 133.12 40.529 133.12C40.7009 133.12 40.8728 133.113 41.0384 133.107C41.2294 133.094 41.4268 133.094 41.6241 133.094C44.3875 133.094 47.4564 133.986 50.2644 135.603C53.2953 137.354 55.702 139.748 57.0391 142.346C58.8728 145.905 62.5022 148.114 66.5071 148.114C68.5509 148.114 70.5439 147.529 72.2629 146.421C74.7206 144.842 77.9997 143.969 81.5018 143.969C85.0038 143.969 88.2829 144.842 90.7406 146.421C92.4598 147.529 94.4526 148.114 96.4965 148.114C100.501 148.114 104.131 145.905 105.964 142.346C107.302 139.748 109.708 137.354 112.739 135.603C115.547 133.986 118.61 133.094 121.379 133.094C121.577 133.094 121.774 133.1 121.965 133.107C125.034 133.26 128.065 132.037 130.185 129.815C132.185 127.72 133.254 124.855 133.114 121.958C132.974 119.042 133.859 115.769 135.61 112.732C137.361 109.701 139.755 107.294 142.353 105.957C145.014 104.588 146.988 102.143 147.759 99.2462C148.535 96.3556 148.052 93.2483 146.428 90.7332C144.849 88.2818 143.977 85.0028 143.977 81.5007L143.977 81.5009Z" fill="#0CA074"/>
<path d="M150.318 81.5005C150.318 77.7502 151.248 74.242 152.929 71.625C154.769 68.7661 155.316 65.245 154.438 61.9596C153.559 58.6741 151.318 55.8979 148.3 54.338C145.53 52.9118 142.977 50.3395 141.099 47.0922C139.22 43.8449 138.271 40.343 138.424 37.2357C138.584 33.9503 137.374 30.6967 135.101 28.3152C132.828 25.934 129.644 24.5649 126.352 24.5649C126.161 24.5649 125.964 24.5713 125.773 24.5777C125.569 24.5904 125.359 24.5904 125.149 24.5904C122.201 24.5904 118.915 23.6353 115.91 21.8972C112.663 20.0189 110.09 17.4655 108.664 14.6958C106.582 10.659 102.462 8.15039 97.9098 8.15039C95.5857 8.15039 93.3318 8.81258 91.3771 10.0733C88.7601 11.7542 85.2518 12.6839 81.5015 12.6839C77.7512 12.6839 74.243 11.7543 71.626 10.0733C69.6713 8.81259 67.411 8.15039 65.0933 8.15039C60.5471 8.15039 56.4276 10.6591 54.3391 14.7022C52.9128 17.4719 50.3405 20.0251 47.0932 21.9035C44.0878 23.6417 40.8088 24.5968 37.8544 24.5968C37.6443 24.5968 37.4341 24.5904 37.2304 24.584C37.0394 24.5713 36.842 24.5713 36.651 24.5713C33.3656 24.5713 30.1755 25.9402 27.9024 28.3216C25.6294 30.7029 24.4196 33.9565 24.5787 37.2421C24.7315 40.3492 23.7764 43.8513 21.9045 47.0985C20.0326 50.3458 17.4729 52.9181 14.7032 54.3444C11.6787 55.898 9.44383 58.674 8.56526 61.9659C7.68659 65.2514 8.23417 68.7725 10.0743 71.6313C11.7551 74.242 12.6849 77.7502 12.6849 81.5005C12.6849 85.2508 11.7553 88.7591 10.0743 91.376C8.23417 94.2349 7.68666 97.756 8.56526 101.041C9.44393 104.327 11.6852 107.103 14.7032 108.663C17.4729 110.089 20.0261 112.662 21.9045 115.909C23.7829 119.156 24.7316 122.658 24.5787 125.765C24.4195 129.051 25.6293 132.304 27.9024 134.686C30.1755 137.067 33.3592 138.436 36.651 138.436C36.842 138.436 37.0394 138.43 37.2304 138.423C37.4341 138.411 37.6443 138.411 37.8544 138.411C40.8024 138.411 44.0878 139.366 47.0932 141.104C50.3405 142.982 52.9128 145.536 54.3391 148.305C56.4211 152.342 60.5407 154.851 65.0933 154.851C67.4174 154.851 69.6713 154.188 71.626 152.928C74.243 151.247 77.7512 150.317 81.5015 150.317C85.2518 150.317 88.7601 151.247 91.3771 152.928C93.3318 154.188 95.5921 154.851 97.9098 154.851C102.456 154.851 106.576 152.342 108.658 148.299C110.084 145.529 112.656 142.976 115.904 141.098C118.909 139.359 122.188 138.404 125.142 138.404C125.352 138.404 125.563 138.411 125.766 138.417C125.957 138.43 126.155 138.43 126.346 138.43C129.631 138.43 132.821 137.061 135.094 134.679C137.367 132.298 138.577 129.045 138.418 125.759C138.265 122.652 139.22 119.15 141.092 115.902C142.97 112.655 145.524 110.083 148.294 108.657C151.318 107.103 153.553 104.327 154.431 101.035C155.31 97.7496 154.763 94.2285 152.922 91.3697C151.248 88.7591 150.318 85.2508 150.318 81.5005ZM148.523 99.4566C147.688 102.564 145.575 105.193 142.709 106.664C140.245 107.931 137.972 110.23 136.291 113.133C134.617 116.037 133.763 119.157 133.897 121.92C134.05 125.027 132.897 128.109 130.752 130.363C128.6 132.617 125.581 133.91 122.474 133.91C122.29 133.91 122.105 133.903 121.92 133.897C121.742 133.89 121.557 133.884 121.373 133.884C118.743 133.884 115.821 134.737 113.134 136.291C110.23 137.965 107.932 140.245 106.665 142.709C104.691 146.536 100.794 148.911 96.4898 148.911C94.293 148.911 92.1536 148.28 90.3008 147.09C87.9704 145.593 84.8441 144.766 81.4951 144.766C78.1459 144.766 75.0132 145.593 72.6893 147.09C70.8428 148.28 68.7035 148.911 66.5067 148.911C62.2025 148.911 58.3059 146.536 56.3319 142.709C55.0649 140.245 52.7663 137.965 49.8628 136.291C47.1759 134.737 44.2469 133.884 41.6236 133.884C41.439 133.884 41.2543 133.89 41.076 133.897C40.8977 133.903 40.7067 133.91 40.5221 133.91C37.4085 133.91 34.3905 132.617 32.2448 130.363C30.0991 128.109 28.9467 125.034 29.0994 121.92C29.2331 119.157 28.3799 116.037 26.7052 113.133C25.0307 110.23 22.7512 107.931 20.2871 106.664C17.4283 105.193 15.3079 102.564 14.4739 99.4566C13.6398 96.3495 14.1619 93.013 15.9001 90.3069C17.3964 87.9765 18.2242 84.8502 18.2242 81.5012C18.2242 78.1522 17.3965 75.0193 15.9001 72.6954C14.1619 69.9893 13.6398 66.653 14.4739 63.5457C15.308 60.4386 17.4219 57.8089 20.2871 56.338C22.7512 55.071 25.0242 52.7724 26.7052 49.8689C28.3797 46.9655 29.233 43.8456 29.0994 41.0822C28.9466 37.9751 30.099 34.8933 32.2448 32.6393C34.3969 30.3853 37.415 29.0927 40.5221 29.0927C40.7067 29.0927 40.8914 29.0991 41.076 29.1055C41.2543 29.1119 41.439 29.1182 41.6236 29.1182C44.2533 29.1182 47.1757 28.265 49.8628 26.7114C52.7661 25.0369 55.0648 22.7573 56.3319 20.2932C58.3057 16.4665 62.2025 14.0916 66.5067 14.0916C68.7035 14.0916 70.8428 14.7219 72.6893 15.9126C75.0197 17.4089 78.1461 18.2367 81.4951 18.2367C84.8442 18.2367 87.9769 17.4089 90.3008 15.9126C92.1473 14.7219 94.2866 14.0916 96.4834 14.0916C100.788 14.0916 104.684 16.4665 106.658 20.2932C107.925 22.7573 110.224 25.0369 113.127 26.7114C115.814 28.2649 118.743 29.1182 121.366 29.1182C121.551 29.1182 121.736 29.1119 121.914 29.1055C122.092 29.0991 122.283 29.0927 122.468 29.0927C125.582 29.0927 128.6 30.3853 130.745 32.6393C132.891 34.8933 134.043 37.9686 133.891 41.0822C133.757 43.8456 134.61 46.9655 136.285 49.8689C137.96 52.7722 140.239 55.0709 142.703 56.338C145.562 57.8088 147.682 60.4385 148.516 63.5457C149.35 66.653 148.828 69.9893 147.09 72.6954C145.594 75.0258 144.766 78.1522 144.766 81.5012C144.766 84.8502 145.594 87.983 147.09 90.3069C148.835 93.013 149.357 96.3493 148.523 99.4566Z" fill="#0CA074"/>
<path fill-rule="evenodd" clip-rule="evenodd" d="M49.083 61.708H91.583V68.7913H49.083V61.708ZM49.083 75.8747H91.583V82.958H49.083V75.8747ZM105.75 90.0413V75.8747H98.6663V90.0413H84.4997V97.1247H98.6663V111.291H105.75V97.1247H119.916V90.0413H105.75ZM77.4163 97.1247H49.083V90.0413H77.4163V97.1247Z" fill="white"/>
</svg>
