<svg width="164" height="163" viewBox="0 0 164 163" fill="none" xmlns="http://www.w3.org/2000/svg">
<path d="M144.859 81.5004C144.859 77.9985 145.731 74.7193 147.326 72.2616C148.953 69.7401 149.44 66.6394 148.665 63.7485C147.883 60.8579 145.903 58.4066 143.226 57.0375C140.612 55.7004 138.203 53.2936 136.442 50.2629C134.68 47.2321 133.789 43.953 133.93 41.0368C134.071 38.1461 132.995 35.2809 130.983 33.1797C128.972 31.0785 126.147 29.8752 123.232 29.8752C123.059 29.8752 122.886 29.8816 122.719 29.8879C122.527 29.9007 122.329 29.9007 122.13 29.9007C119.35 29.9007 116.262 29.0092 113.437 27.3919C110.387 25.641 107.966 23.2468 106.62 20.6491C104.775 17.0898 101.124 14.8804 97.0943 14.8804C95.0379 14.8804 93.0327 15.4662 91.3032 16.5741C88.8304 18.1532 85.5312 19.0255 82.0076 19.0255C78.4843 19.0255 75.1849 18.1532 72.7121 16.5741C70.9824 15.4662 68.9773 14.8804 66.9209 14.8804C62.8915 14.8804 59.2398 17.0898 57.3948 20.6491C56.0495 23.247 53.6279 25.641 50.5787 27.3919C47.7534 29.0092 44.6721 29.9007 41.8854 29.9007C41.6868 29.9007 41.4882 29.8943 41.296 29.8879C38.2082 29.7415 35.1588 30.9576 33.0255 33.1797C31.0139 35.2746 29.9377 38.1398 30.0786 41.0368C30.2195 43.953 29.329 47.2257 27.5674 50.2629C25.8057 53.2938 23.3969 55.7004 20.7832 57.0375C18.1054 58.4065 16.1194 60.8514 15.3443 63.7486C14.5627 66.6392 15.0496 69.7465 16.6832 72.2616C18.272 74.7193 19.1496 77.9984 19.1496 81.5004C19.1496 85.0025 18.2784 88.2815 16.6832 90.7393C15.056 93.2607 14.5691 96.3615 15.3443 99.2523C16.1259 102.143 18.1054 104.594 20.7832 105.963C23.397 107.3 25.8057 109.707 27.5674 112.738C29.3291 115.769 30.2196 119.048 30.0786 121.958C29.9376 124.855 31.0139 127.713 33.0255 129.815C35.0371 131.916 37.8622 133.119 40.7771 133.119C40.9501 133.119 41.123 133.113 41.2896 133.106C41.4818 133.094 41.6804 133.094 41.879 133.094C44.6593 133.094 47.7471 133.985 50.5723 135.602C53.6217 137.353 56.0432 139.747 57.3885 142.345C59.2335 145.904 62.8851 148.114 66.9146 148.114C68.971 148.114 70.9762 147.528 72.7057 146.42C75.1785 144.841 78.4777 143.969 82.0013 143.969C85.5248 143.969 88.824 144.841 91.2968 146.42C93.0265 147.528 95.0315 148.114 97.0879 148.114C101.117 148.114 104.769 145.904 106.614 142.345C107.959 139.747 110.381 137.353 113.43 135.602C116.255 133.985 119.337 133.094 122.124 133.094C122.322 133.094 122.521 133.1 122.713 133.106C125.801 133.259 128.85 132.037 130.983 129.815C132.995 127.72 134.071 124.854 133.93 121.957C133.789 119.041 134.68 115.769 136.442 112.731C138.203 109.701 140.612 107.294 143.226 105.957C145.903 104.588 147.89 102.143 148.665 99.2457C149.446 96.3551 148.959 93.2478 147.326 90.7327C145.737 88.2814 144.859 85.0023 144.859 81.5002V81.5004Z" fill="#0CA074"/>
<path d="M151.24 81.5C151.24 77.7497 152.175 74.2415 153.867 71.6245C155.718 68.7656 156.269 65.2445 155.385 61.9591C154.501 58.6737 152.246 55.8974 149.209 54.3375C146.423 52.9113 143.854 50.339 141.964 47.0917C140.074 43.8444 139.12 40.3425 139.273 37.2353C139.434 33.9498 138.216 30.6962 135.929 28.3148C133.642 25.9335 130.439 24.5644 127.127 24.5644C126.935 24.5644 126.736 24.5708 126.544 24.5772C126.339 24.5899 126.128 24.5899 125.916 24.5899C122.95 24.5899 119.645 23.6348 116.621 21.8967C113.354 20.0184 110.765 17.465 109.33 14.6953C107.236 10.6585 103.091 8.1499 98.5102 8.1499C96.1719 8.1499 93.9041 8.81209 91.9374 10.0728C89.3044 11.7537 85.7746 12.6834 82.0013 12.6834C78.228 12.6834 74.6982 11.7538 72.0652 10.0728C70.0985 8.81211 67.8243 8.1499 65.4924 8.1499C60.9183 8.1499 56.7735 10.6586 54.6722 14.7017C53.2372 17.4714 50.6491 20.0246 47.3819 21.903C44.3581 23.6413 41.0589 24.5963 38.0864 24.5963C37.875 24.5963 37.6636 24.5899 37.4586 24.5835C37.2664 24.5708 37.0678 24.5708 36.8756 24.5708C33.57 24.5708 30.3604 25.9397 28.0734 28.3211C25.7864 30.7024 24.5692 33.956 24.7293 37.2416C24.883 40.3487 23.9221 43.8508 22.0387 47.0981C20.1553 50.3453 17.5799 52.9176 14.7932 54.3439C11.7501 55.8975 9.50154 58.6735 8.61758 61.9654C7.73352 65.2509 8.28446 68.772 10.1359 71.6309C11.827 74.2415 12.7625 77.7497 12.7625 81.5C12.7625 85.2503 11.8272 88.7586 10.1359 91.3755C8.28446 94.2344 7.73359 97.7555 8.61758 101.041C9.50164 104.326 11.7567 107.103 14.7932 108.662C17.5799 110.089 20.1487 112.661 22.0387 115.908C23.9286 119.156 24.8831 122.658 24.7293 125.765C24.5691 129.05 25.7863 132.304 28.0734 134.685C30.3604 137.067 33.5636 138.436 36.8756 138.436C37.0678 138.436 37.2664 138.429 37.4586 138.423C37.6636 138.41 37.875 138.41 38.0864 138.41C41.0525 138.41 44.3581 139.365 47.3819 141.103C50.6491 142.982 53.2372 145.535 54.6722 148.305C56.767 152.342 60.9119 154.85 65.4924 154.85C67.8307 154.85 70.0985 154.188 72.0652 152.927C74.6982 151.246 78.228 150.317 82.0013 150.317C85.7746 150.317 89.3044 151.246 91.9374 152.927C93.9041 154.188 96.1783 154.85 98.5102 154.85C103.084 154.85 107.229 152.341 109.324 148.298C110.759 145.529 113.347 142.975 116.614 141.097C119.638 139.359 122.937 138.404 125.91 138.404C126.121 138.404 126.333 138.41 126.538 138.417C126.73 138.429 126.928 138.429 127.121 138.429C130.426 138.429 133.636 137.06 135.923 134.679C138.21 132.298 139.427 129.044 139.267 125.758C139.113 122.651 140.074 119.149 141.958 115.902C143.847 112.655 146.416 110.082 149.203 108.656C152.246 107.103 154.495 104.327 155.379 101.035C156.263 97.7492 155.712 94.228 153.86 91.3692C152.176 88.7586 151.24 85.2503 151.24 81.5ZM149.434 99.4561C148.594 102.563 146.467 105.193 143.585 106.664C141.105 107.931 138.818 110.229 137.127 113.133C135.442 116.036 134.584 119.156 134.718 121.92C134.872 125.027 133.713 128.109 131.554 130.363C129.388 132.616 126.352 133.909 123.226 133.909C123.04 133.909 122.854 133.903 122.668 133.896C122.489 133.89 122.303 133.884 122.117 133.884C119.471 133.884 116.531 134.737 113.828 136.29C110.906 137.965 108.594 140.245 107.319 142.709C105.333 146.535 101.412 148.91 97.0815 148.91C94.8713 148.91 92.7188 148.28 90.8546 147.089C88.5099 145.593 85.3643 144.765 81.9948 144.765C78.6251 144.765 75.4732 145.593 73.135 147.089C71.2772 148.28 69.1247 148.91 66.9145 148.91C62.5839 148.91 58.6633 146.535 56.6773 142.709C55.4025 140.245 53.0898 137.965 50.1685 136.29C47.4651 134.737 44.5182 133.884 41.8787 133.884C41.693 133.884 41.5072 133.89 41.3278 133.896C41.1484 133.903 40.9562 133.909 40.7705 133.909C37.6377 133.909 34.6013 132.617 32.4424 130.363C30.2835 128.109 29.124 125.033 29.2777 121.92C29.4122 119.156 28.5538 116.036 26.8688 113.133C25.1841 110.23 22.8905 107.931 20.4113 106.664C17.5349 105.193 15.4016 102.563 14.5624 99.4561C13.7232 96.349 14.2485 93.0125 15.9974 90.3064C17.5029 87.976 18.3358 84.8497 18.3358 81.5007C18.3358 78.1517 17.503 75.0188 15.9974 72.6949C14.2486 69.9888 13.7233 66.6525 14.5624 63.5452C15.4017 60.4381 17.5286 57.8085 20.4113 56.3375C22.8905 55.0705 25.1775 52.7719 26.8688 49.8684C28.5536 46.965 29.4122 43.8451 29.2777 41.0817C29.1239 37.9746 30.2835 34.8928 32.4424 32.6388C34.6077 30.3849 37.6443 29.0923 40.7705 29.0923C40.9562 29.0923 41.142 29.0986 41.3278 29.105C41.5072 29.1114 41.693 29.1177 41.8787 29.1177C44.5246 29.1177 47.4649 28.2645 50.1685 26.7109C53.0896 25.0364 55.4024 22.7568 56.6773 20.2927C58.6632 16.466 62.5839 14.0911 66.9145 14.0911C69.1247 14.0911 71.2772 14.7214 73.135 15.9121C75.4797 17.4084 78.6252 18.2362 81.9948 18.2362C85.3645 18.2362 88.5164 17.4084 90.8546 15.9121C92.7124 14.7215 94.8649 14.0911 97.0751 14.0911C101.406 14.0911 105.326 16.466 107.312 20.2927C108.587 22.7568 110.9 25.0364 113.821 26.7109C116.524 28.2645 119.471 29.1177 122.111 29.1177C122.297 29.1177 122.482 29.1114 122.662 29.105C122.841 29.0986 123.033 29.0923 123.219 29.0923C126.352 29.0923 129.388 30.3848 131.547 32.6388C133.706 34.8928 134.866 37.9681 134.712 41.0817C134.577 43.8451 135.436 46.965 137.121 49.8684C138.806 52.7718 141.099 55.0704 143.578 56.3375C146.455 57.8084 148.588 60.438 149.427 63.5452C150.266 66.6525 149.741 69.9888 147.992 72.6949C146.487 75.0253 145.654 78.1517 145.654 81.5007C145.654 84.8497 146.487 87.9825 147.992 90.3064C149.747 93.0125 150.273 96.3488 149.434 99.4561H149.434Z" fill="#0CA074"/>
<path fill-rule="evenodd" clip-rule="evenodd" d="M105.124 57.4758C104.431 55.4454 102.492 54 100.207 54H62.1189C59.8336 54 57.9292 55.4454 57.2021 57.4758L50 78.09V105.621C50 107.514 51.5581 109.063 53.4625 109.063H56.9251C58.8295 109.063 60.3876 107.514 60.3876 105.621V102.18H101.938V105.621C101.938 107.514 103.496 109.063 105.401 109.063H108.863C110.767 109.063 112.326 107.514 112.326 105.621V78.09L105.124 57.4758ZM63.3304 60.8829H98.9599L102.699 71.5857H59.5909L63.3304 60.8829ZM56.9251 95.2971H105.401V78.09H56.9251V95.2971ZM65.581 81.5314C62.7125 81.5314 60.3872 83.8426 60.3872 86.6936C60.3872 89.5445 62.7125 91.8557 65.581 91.8557C68.4495 91.8557 70.7748 89.5445 70.7748 86.6936C70.7748 83.8426 68.4495 81.5314 65.581 81.5314ZM91.5504 86.6936C91.5504 83.8426 93.8758 81.5314 96.7442 81.5314C99.6127 81.5314 101.938 83.8426 101.938 86.6936C101.938 89.5445 99.6127 91.8557 96.7442 91.8557C93.8758 91.8557 91.5504 89.5445 91.5504 86.6936Z" fill="white"/>
</svg>
